<svg id="ebf063f1-d06b-4eff-990f-bc9bd0cfdd4b" data-name="Layer 1" xmlns="http://www.w3.org/2000/svg" viewBox="0 0 64 64"><defs><style>.a25f65e2-fb76-4507-b1e9-47455115b2ca</style></defs><path class="a25f65e2-fb76-4507-b1e9-47455115b2ca" d="M32,5.28A29.13,29.13,0,1,0,61.12,34.41,29.16,29.16,0,0,0,32,5.28Zm0,52.25A23.13,23.13,0,1,1,55.12,34.41,23.14,23.14,0,0,1,32,57.53Z"/><path class="a25f65e2-fb76-4507-b1e9-47455115b2ca" d="M44.94,31.41H35V21.47a3,3,0,0,0-6,0v9.94H19.06a3,3,0,0,0,0,6H29v9.93a3,3,0,0,0,6,0V37.41h9.94a3,3,0,1,0,0-6Z"/></svg>