<svg id="accac847-29ce-4fa5-a0d8-4203992c528b" data-name="Layer 1" xmlns="http://www.w3.org/2000/svg" viewBox="0 0 64 64"><defs><style>.e0768763-7c63-49ac-9801-16d761b6a75b</style></defs><path class="e0768763-7c63-49ac-9801-16d761b6a75b" d="M62.25,53.29s0-.1,0-.15.07-.17.1-.26A31.57,31.57,0,0,0,50,18.58l3.15-6.11A3.12,3.12,0,0,0,52,8.36a3,3,0,0,0-4.18,1.22l-3.12,6.05a31.51,31.51,0,0,0-25.48,0l-3-5.9a3.13,3.13,0,0,0-4-1.52,3,3,0,0,0-1.44,4.12L14,18.58A31.57,31.57,0,0,0,1.6,52.88c0,.07.06.13.08.2a2.77,2.77,0,0,0,.1.26l.15.28.14.22.21.25.18.18.23.2.23.16.25.13a1.59,1.59,0,0,0,.27.12,2.29,2.29,0,0,0,.28.09A2.3,2.3,0,0,0,4,55l.31,0h55.2a3.55,3.55,0,0,0,.56-.06l.14,0a2.4,2.4,0,0,0,.38-.12l.17-.07.33-.18a1,1,0,0,0,.13-.09,2,2,0,0,0,.36-.29l.05,0a3.83,3.83,0,0,0,.36-.44h0A4.31,4.31,0,0,0,62.25,53.29ZM32,18.94A25.56,25.56,0,0,1,57.53,44.47c0,.58,0,1.15-.06,1.73a3.1,3.1,0,0,1-3.1,2.88H9.63a3.1,3.1,0,0,1-3.1-2.88c0-.58-.06-1.15-.06-1.73A25.56,25.56,0,0,1,32,18.94Z"/><path class="e0768763-7c63-49ac-9801-16d761b6a75b" d="M19.3,41.51a4.36,4.36,0,1,0-3.62-3.62A4.36,4.36,0,0,0,19.3,41.51Z"/><path class="e0768763-7c63-49ac-9801-16d761b6a75b" d="M43.32,41.51a4.36,4.36,0,1,0-3.61-3.62A4.37,4.37,0,0,0,43.32,41.51Z"/></svg>