<svg id="ee3df31d-77f6-440e-9836-b00980fe1679" data-name="Layer 1" xmlns="http://www.w3.org/2000/svg" viewBox="0 0 64 64"><defs><style>.a426086b-72ed-4467-8cd3-6e383639c038</style></defs><path class="a426086b-72ed-4467-8cd3-6e383639c038" d="M55.13,31.87C53,23.21,42.79,10.76,36.93,4.11A6.56,6.56,0,0,0,32,1.88h0a6.57,6.57,0,0,0-4.93,2.23c-5.86,6.65-16,19.1-18.2,27.75A24.31,24.31,0,0,0,18.45,58,24.18,24.18,0,0,0,32,62.12h.39A24.11,24.11,0,0,0,45.55,58,24.3,24.3,0,0,0,55.13,31.87ZM32,56.11A18.14,18.14,0,0,1,21.81,53a18.28,18.28,0,0,1-7.12-19.67h0c1.93-7.7,12.45-20.22,16.88-25.24a.57.57,0,0,1,.43-.2h0V56.11Z"/></svg>