<svg id="f43a7650-a22a-40bc-8e32-9fbb563b0237" data-name="Layer 1" xmlns="http://www.w3.org/2000/svg" viewBox="0 0 64 64"><defs><style>.bc44e390-46b8-4cb3-8ae6-f9c58449f4a9</style></defs><path class="bc44e390-46b8-4cb3-8ae6-f9c58449f4a9" d="M36.09,61.34H10.24a7,7,0,0,1-7-7V20.73a7,7,0,0,1,7-7H36.09a7,7,0,0,1,7,7V54.34A7,7,0,0,1,36.09,61.34ZM10.24,19.73a1,1,0,0,0-1,1V54.34a1,1,0,0,0,1,1H36.09a1,1,0,0,0,1-1V20.73a1,1,0,0,0-1-1Z"/><path class="bc44e390-46b8-4cb3-8ae6-f9c58449f4a9" d="M53.76,50.27H48a3,3,0,0,1,0-6h5.74a1,1,0,0,0,1-1V9.66a1,1,0,0,0-1-1H27.91a1,1,0,0,0-1,1,3,3,0,0,1-6,0,7,7,0,0,1,7-7H53.76a7,7,0,0,1,7,7V43.27A7,7,0,0,1,53.76,50.27Z"/></svg>