<svg id="a7c47ee4-f5d8-434a-840f-a07f925fa3a1" data-name="Layer 1" xmlns="http://www.w3.org/2000/svg" viewBox="0 0 32 32"><path d="M16.2,28c-.25,0-.5,0-.75,0A12.11,12.11,0,0,1,13.27,4.1a2.53,2.53,0,0,1,2.4.68,2.69,2.69,0,0,1,.68,2.54A7.13,7.13,0,0,0,23,16.2h0A6.83,6.83,0,0,0,24.75,16a2.67,2.67,0,0,1,2.51.78,2.48,2.48,0,0,1,.58,2.41A12.07,12.07,0,0,1,16.2,28ZM13.72,6.75A9.43,9.43,0,1,0,25.2,18.67a8.77,8.77,0,0,1-2.3.22A9.9,9.9,0,0,1,13.44,9.1,10.34,10.34,0,0,1,13.72,6.75Z"/><rect width="32" height="32" fill="none"/></svg>