<svg id="f502fb96-7520-4131-8520-3d458abd33a0" data-name="Layer 1" xmlns="http://www.w3.org/2000/svg" viewBox="0 0 64 64"><defs><style>.b6f2758d-6aa7-4936-8dfc-e7edb394ec67</style></defs><path class="b6f2758d-6aa7-4936-8dfc-e7edb394ec67" d="M32.57,5.4a26.61,26.61,0,0,0-2.84,53.12c.77.06,1.54.09,2.3.09a26.3,26.3,0,0,0,14.84-4.54,2.6,2.6,0,0,0,1.07-3,2.5,2.5,0,0,0-3.75-1.17,21.43,21.43,0,0,1-14,3.68A21.64,21.64,0,0,1,19.68,14.21a21.22,21.22,0,0,1,12.57-3.82h.22C44,10.64,53.64,20.83,53.61,32.65a25.18,25.18,0,0,1-.3,4.53,5.18,5.18,0,0,1-2.67,3.59l-.08,0a3.89,3.89,0,0,1-3.87-.19A4.27,4.27,0,0,1,44.63,37V21.63a2.5,2.5,0,0,0-5-.09.25.25,0,0,1-.4.16,12.63,12.63,0,1,0,.93,19.88.48.48,0,0,1,.74.12,9.33,9.33,0,0,0,3.13,3.18,8.94,8.94,0,0,0,8.76.39l.14-.08a10.21,10.21,0,0,0,5.26-7.07,30.29,30.29,0,0,0,.38-5.46C58.65,18.18,46.72,5.69,32.57,5.4Zm.92,34.09a7.64,7.64,0,1,1,6-6A7.65,7.65,0,0,1,33.49,39.49Z"/></svg>