<svg id="a50dae67-3dc1-4b47-83c5-2d289d82ef1c" data-name="Layer 1" xmlns="http://www.w3.org/2000/svg" viewBox="0 0 64 64"><defs><style>.a1517092-b026-4d49-83cc-2650642c6411</style></defs><path class="a1517092-b026-4d49-83cc-2650642c6411" d="M54.49,31.58v0c0-.13-.07-.26-.11-.38a.61.61,0,0,1-.05-.12c0-.09-.09-.17-.14-.26l-.07-.11a2.69,2.69,0,0,0-.27-.32L49.1,25.6a2.33,2.33,0,1,0-3.29,3.29l.79.78H29.28a2.33,2.33,0,0,0,0,4.66H46.6l-.79.78a2.33,2.33,0,0,0,1.64,4,2.35,2.35,0,0,0,1.65-.68l4.75-4.76,0,0a2.43,2.43,0,0,0,.2-.25.86.86,0,0,0,.07-.1,2.37,2.37,0,0,0,.19-.35h0a.64.64,0,0,1,0-.07c0-.11.07-.22.1-.33s0-.08,0-.12l0-.3V32A1.61,1.61,0,0,0,54.49,31.58Z"/><path class="a1517092-b026-4d49-83cc-2650642c6411" d="M40.37,39.16a3,3,0,0,0-3,3V52.52a1,1,0,0,1-1,1H8.31a1,1,0,0,1-1-1V11.47a1,1,0,0,1,1-1H36.37a1,1,0,0,1,1,1v9.44a3,3,0,1,0,6,0V11.47a7,7,0,0,0-7-7H8.31a7,7,0,0,0-7,7V52.52a7,7,0,0,0,7,7H36.37a7,7,0,0,0,7-7V42.16A3,3,0,0,0,40.37,39.16Z"/></svg>