<svg id="b8ca3e90-2b52-4579-878f-70672cbc3e3d" data-name="Layer 1" xmlns="http://www.w3.org/2000/svg" viewBox="0 0 64 64"><defs><style>.b9496b30-b841-40b8-922d-2ca34e6276b5</style></defs><g id="ac6eb974-9e01-4376-94f6-e89a716e04d4" data-name="形状"><path class="b9496b30-b841-40b8-922d-2ca34e6276b5" d="M31.09,14.9,33.33,14a12.65,12.65,0,0,1,6.94-1,16.39,16.39,0,0,1,11.95,8.1,3,3,0,0,1-1.51,4.3,7.52,7.52,0,0,0,.4,14.15A3,3,0,0,1,53,43.34a37.55,37.55,0,0,1-5.5,10.77,19.59,19.59,0,0,1-8,6.64,10.11,10.11,0,0,1-6.25,0L32,60.38h0l-1.76-.49h0l-1-.24a6.73,6.73,0,0,0-1.43-.2,6.81,6.81,0,0,0-1.44.2l-1,.24h0l-2.37.66c-2.25.61-4.64,1.08-6.87.2-3.83-1.52-7.2-5-9.75-9.22a40.42,40.42,0,0,1-5.37-15A25.08,25.08,0,0,1,3,22.17,16.39,16.39,0,0,1,15.5,13a12.28,12.28,0,0,1,6.44.8l1,.39h0l1.76.72a8.56,8.56,0,0,0,3.2.75A8.6,8.6,0,0,0,31.09,14.9Zm-8.65,5.59-1-.43c-2.2-.92-3.43-1.39-4.9-1.14a10.38,10.38,0,0,0-8.11,5.89A19.08,19.08,0,0,0,7.08,35.66a34.4,34.4,0,0,0,4.55,12.73c2.22,3.63,4.72,5.93,6.84,6.77a4.54,4.54,0,0,0,2.72-.24l1.33-.44.37-.11,1.3-.36a15.27,15.27,0,0,1,3.7-.57,15.26,15.26,0,0,1,3.69.57l1.31.36h0l.36.11h0l1.34.44a4.54,4.54,0,0,0,2.72.24,13.76,13.76,0,0,0,5.41-4.67,30.25,30.25,0,0,0,3.68-6.55A13.54,13.54,0,0,1,45.15,21.7a10.85,10.85,0,0,0-5.87-2.78c-1.33-.22-2.46.13-4.27.88l-.63.26a16.49,16.49,0,0,1-6.49,1.61,14.87,14.87,0,0,1-5.45-1.18ZM27.19,3.12C30.13.19,34.63-.07,35.69,1s.81,5.57-2.12,8.5-7.44,3.19-8.51,2.13S24.25,6.06,27.19,3.12Z"/></g></svg>