<svg id="f1409d26-e98e-4800-8779-746ec007425e" data-name="Layer 1" xmlns="http://www.w3.org/2000/svg" viewBox="0 0 32 32"><path d="M16,24.2A8.21,8.21,0,1,1,24.21,16,8.22,8.22,0,0,1,16,24.2Zm0-14A5.79,5.79,0,1,0,21.79,16,5.8,5.8,0,0,0,16,10.21Z"/><path d="M16,7.41A1.21,1.21,0,0,1,14.79,6.2V3.12a1.21,1.21,0,0,1,2.42,0V6.2A1.21,1.21,0,0,1,16,7.41Z"/><path d="M16,30.09a1.21,1.21,0,0,1-1.21-1.21V25.8a1.21,1.21,0,1,1,2.42,0v3.08A1.21,1.21,0,0,1,16,30.09Z"/><path d="M28.88,17.21H25.8a1.21,1.21,0,1,1,0-2.42h3.08a1.21,1.21,0,0,1,0,2.42Z"/><path d="M6.2,17.21H3.12a1.21,1.21,0,1,1,0-2.42H6.2a1.21,1.21,0,0,1,0,2.42Z"/><path d="M22.93,10.28a1.2,1.2,0,0,1-1.21-1.21,1.22,1.22,0,0,1,.35-.85L24.25,6A1.21,1.21,0,0,1,26,6a1.16,1.16,0,0,1,.35.85,1.2,1.2,0,0,1-.35.86L23.78,9.93A1.22,1.22,0,0,1,22.93,10.28Z"/><path d="M6.89,26.31A1.21,1.21,0,0,1,6,24.25l2.18-2.18a1.21,1.21,0,0,1,1.71,0,1.24,1.24,0,0,1,.35.86,1.2,1.2,0,0,1-.35.85L8.84,24.87h0L7.75,26A1.2,1.2,0,0,1,6.89,26.31Z"/><path d="M25.11,26.31a1.2,1.2,0,0,1-.86-.35l-1.09-1.09h0l-1.09-1.09a1.2,1.2,0,0,1-.35-.85,1.24,1.24,0,0,1,.35-.86,1.21,1.21,0,0,1,1.71,0L26,24.25a1.21,1.21,0,0,1-.85,2.06Z"/><path d="M9.07,10.28a1.22,1.22,0,0,1-.85-.35L6,7.75a1.2,1.2,0,0,1-.35-.86A1.16,1.16,0,0,1,6,6,1.21,1.21,0,0,1,7.75,6L9.93,8.22a1.22,1.22,0,0,1,.35.85,1.2,1.2,0,0,1-1.21,1.21Z"/><rect width="32" height="32" fill="none"/></svg>