<svg id="adc7cd16-880b-4fb8-8366-b7c0ee5f4bbd" data-name="Layer 1" xmlns="http://www.w3.org/2000/svg" xmlns:xlink="http://www.w3.org/1999/xlink" viewBox="0 0 92 92"><defs><style>.a8c2d5e8-3737-458e-94eb-eac77710fc32,.e39b4051-6249-4995-9b6c-42ade3f48ac7{fill:#be9ded;}.a8c2d5e8-3737-458e-94eb-eac77710fc32{filter:url(#a7cb9e18-4e92-46e2-85c4-f7e7133feba9);}.b15a29a4-9197-46f7-b218-ee4f607d678b{fill:#f7f7f7;}.f5f27eab-163c-43a9-910e-6ca7d614a29d{filter:url(#e6e928be-8929-4ba4-a2a6-afe820846b8c);}</style><filter id="a7cb9e18-4e92-46e2-85c4-f7e7133feba9" x="-6.75" y="0.17" width="69" height="74" filterUnits="userSpaceOnUse"><feOffset dx="-2" dy="2" input="SourceAlpha"/><feGaussianBlur stdDeviation="5" result="bee74abb-fc2d-4e55-a03c-302dd7903729"/><feFlood flood-color="#be9ded"/><feComposite operator="in" in2="bee74abb-fc2d-4e55-a03c-302dd7903729"/><feComposite in="SourceGraphic"/></filter><filter id="e6e928be-8929-4ba4-a2a6-afe820846b8c"><feOffset dx="-2" dy="2" input="SourceAlpha"/><feGaussianBlur stdDeviation="5" result="fa6fc762-fa6b-4e70-95a8-fd6e5c12ce0e"/><feFlood flood-color="#be9ded"/><feComposite operator="in" in2="fa6fc762-fa6b-4e70-95a8-fd6e5c12ce0e"/><feComposite in="SourceGraphic"/></filter></defs><path class="a8c2d5e8-3737-458e-94eb-eac77710fc32" d="M48.91,32.84c0,10.39-8.44,23.81-18.84,23.81S11.24,43.23,11.24,32.84a18.84,18.84,0,1,1,37.67,0Z"/><path class="b15a29a4-9197-46f7-b218-ee4f607d678b" d="M35.25,56.9a2,2,0,0,1-1.88-1.35,46.24,46.24,0,0,1-1.84-8.46,4.2,4.2,0,0,1-.69.37,3,3,0,0,1-2.31.07l-.26-.12c-.48,3.64-1.05,6.58-1.08,6.75a2,2,0,1,1-3.89-.75S24.33,48,24.78,43a2,2,0,0,1,3.76-.68,3.45,3.45,0,0,0,1,1.29,8.65,8.65,0,0,0,1.62-2.85A2,2,0,0,1,35,41.4a51.65,51.65,0,0,0,2.11,12.9,2,2,0,0,1-1.87,2.6Z"/><path class="b15a29a4-9197-46f7-b218-ee4f607d678b" d="M26.76,45.14A2,2,0,0,1,25,44c-1.92-4-.62-9.27-.46-9.85a2,2,0,0,1,1.76-1.47,2,2,0,0,1,2,1.17c.47,1.09,1.05,3.25.49,9.47a2,2,0,0,1-1.62,1.77A1.45,1.45,0,0,1,26.76,45.14Z"/><path class="b15a29a4-9197-46f7-b218-ee4f607d678b" d="M33,43.47a1.84,1.84,0,0,1-.33,0,2,2,0,0,1-1.64-1.86c-.41-9,.82-9.29,2-9.52a2.12,2.12,0,0,1,2.42,1.53h0a12.77,12.77,0,0,1,0,6.82l0,.09c-.21.6-.42,1.19-.64,1.73A2,2,0,0,1,33,43.47Zm-1.27-8.58Z"/><path class="b15a29a4-9197-46f7-b218-ee4f607d678b" d="M30.07,69.73a9.17,9.17,0,0,1-9.22-8.45l-.64-7.2a2,2,0,0,1,2.68-2l1.93.74a14.85,14.85,0,0,0,10.76-.08l1.62-.65a2,2,0,0,1,1.92.26,2,2,0,0,1,.79,1.76l-.65,7.21A9.25,9.25,0,0,1,30.07,69.73ZM24.44,56.84l.36,4.1a5.28,5.28,0,0,0,10.52,0l.36-4.09A18.74,18.74,0,0,1,24.44,56.84Z"/><path class="b15a29a4-9197-46f7-b218-ee4f607d678b" d="M63,67.05A2,2,0,0,1,62.59,65a18.74,18.74,0,0,1,2.86-5.36,24.91,24.91,0,0,1,7.3-6c1.51-.87,2.38-1.81,2.45-2.63.1-1.1-1.11-2.17-1.12-2.18h0l2.51-3a7,7,0,0,1,2.52,5.51c-.18,2.21-1.66,4.13-4.4,5.72-6.26,3.64-7.53,6.88-8.41,9.26a2,2,0,0,1-3.27.79Z"/><g class="f5f27eab-163c-43a9-910e-6ca7d614a29d"><path class="e39b4051-6249-4995-9b6c-42ade3f48ac7" d="M46.07,66.08a7.41,7.41,0,0,1,6,6h0c8.81-3.58,12.84-8.87,19.69-18.75a86.57,86.57,0,0,1,5.52-6.9l-5.52-5.52L67.56,44.2c-1.43,1.14-2.87,2.26-4.35,3.32-8.94,6.42-13.75,10.29-17.14,18.56"/></g><path class="b15a29a4-9197-46f7-b218-ee4f607d678b" d="M77.24,46.39c.63-.69,1.27-1.37,1.93-2l0,0c1.81-1.81,2.06-4.49.56-6h0c-1.5-1.5-4.18-1.25-6,.56l0,0c-.67.66-1.34,1.3-2,1.93Z"/><path class="b15a29a4-9197-46f7-b218-ee4f607d678b" d="M50,68.13a7.58,7.58,0,0,0-3.91-2,35.19,35.19,0,0,0-2.09,5,5.4,5.4,0,0,1-1.17,1.94L41,75c-.86.92-1.31,1.89-.57,2.63h0c.77.77,1.78.28,2.71-.64l1.43-1.44a5.34,5.34,0,0,1,2.13-1.31A35,35,0,0,0,52,72,7.65,7.65,0,0,0,50,68.13Z"/></svg>