<svg id="fa3680e7-6c1c-404b-b9ce-6bec5aca5b47" data-name="Layer 1" xmlns="http://www.w3.org/2000/svg" xmlns:xlink="http://www.w3.org/1999/xlink" viewBox="0 0 92 92"><defs><style>.b5f68827-5f7a-4f48-ab1d-bd7a6ce02c7f,.fd2dc3ff-8d3d-401c-9a6f-8b22aa4c741b{fill:#ffb65f;}.b5f68827-5f7a-4f48-ab1d-bd7a6ce02c7f{filter:url(#f4f5c728-5a41-45e9-870e-1f24fc72a5de);}.b352b337-e2dc-49fa-a2b4-ff4baec7c412{fill:#f7f7f7;}.a76c071c-bb1e-4318-99d3-a95b869137a9{fill:#323232;}.a763ea95-ac71-483d-ac1f-3a96a5b5df5a{filter:url(#e214b123-f4aa-4684-98f7-7dc3c4d26c9e);}</style><filter id="f4f5c728-5a41-45e9-870e-1f24fc72a5de" x="-5.91" y="0.17" width="68" height="74" filterUnits="userSpaceOnUse"><feOffset dx="-2" dy="2" input="SourceAlpha"/><feGaussianBlur stdDeviation="5" result="b857aaf7-2932-4931-a3dc-aafa28619d8e"/><feFlood flood-color="#ffb65f"/><feComposite operator="in" in2="b857aaf7-2932-4931-a3dc-aafa28619d8e"/><feComposite in="SourceGraphic"/></filter><filter id="e214b123-f4aa-4684-98f7-7dc3c4d26c9e"><feOffset dx="-2" dy="2" input="SourceAlpha"/><feGaussianBlur stdDeviation="5" result="fc3dae86-387e-4a7a-99f7-10bd382444a1"/><feFlood flood-color="#ffb65f"/><feComposite operator="in" in2="fc3dae86-387e-4a7a-99f7-10bd382444a1"/><feComposite in="SourceGraphic"/></filter></defs><path class="b5f68827-5f7a-4f48-ab1d-bd7a6ce02c7f" d="M48.91,32.84c0,10.39-8.44,23.81-18.84,23.81S11.24,43.23,11.24,32.84a18.84,18.84,0,1,1,37.67,0Z"/><path class="b352b337-e2dc-49fa-a2b4-ff4baec7c412" d="M35.25,56.9a2,2,0,0,1-1.88-1.35,46.24,46.24,0,0,1-1.84-8.46,4.2,4.2,0,0,1-.69.37,3,3,0,0,1-2.31.07l-.26-.12c-.48,3.64-1.05,6.58-1.08,6.75a2,2,0,1,1-3.89-.75S24.33,48,24.78,43a2,2,0,0,1,3.76-.68,3.45,3.45,0,0,0,1,1.29,8.65,8.65,0,0,0,1.62-2.85A2,2,0,0,1,35,41.4a51.65,51.65,0,0,0,2.11,12.9,2,2,0,0,1-1.87,2.6Z"/><path class="b352b337-e2dc-49fa-a2b4-ff4baec7c412" d="M26.76,45.14A2,2,0,0,1,25,44c-1.92-4-.62-9.27-.46-9.85a2,2,0,0,1,1.76-1.47,2,2,0,0,1,2,1.17c.47,1.09,1.05,3.25.49,9.47a2,2,0,0,1-1.62,1.77A1.45,1.45,0,0,1,26.76,45.14Z"/><path class="b352b337-e2dc-49fa-a2b4-ff4baec7c412" d="M33,43.47a1.84,1.84,0,0,1-.33,0,2,2,0,0,1-1.64-1.86c-.41-9,.82-9.29,2-9.52a2.12,2.12,0,0,1,2.42,1.53h0a12.77,12.77,0,0,1,0,6.82l0,.09c-.21.6-.42,1.19-.64,1.73A2,2,0,0,1,33,43.47Zm-1.27-8.58Z"/><path class="a76c071c-bb1e-4318-99d3-a95b869137a9" d="M30.07,69.73a9.17,9.17,0,0,1-9.22-8.45l-.64-7.2a2,2,0,0,1,2.68-2l1.93.74a14.85,14.85,0,0,0,10.76-.08l1.62-.65a2,2,0,0,1,1.92.26,2,2,0,0,1,.79,1.76l-.65,7.21A9.25,9.25,0,0,1,30.07,69.73ZM24.44,56.84l.36,4.1a5.28,5.28,0,0,0,10.52,0l.36-4.09A18.74,18.74,0,0,1,24.44,56.84Z"/><path class="a76c071c-bb1e-4318-99d3-a95b869137a9" d="M63,67.05A2,2,0,0,1,62.59,65a18.74,18.74,0,0,1,2.86-5.36,24.91,24.91,0,0,1,7.3-6c1.51-.87,2.38-1.81,2.45-2.63.1-1.1-1.11-2.17-1.12-2.18h0l2.51-3a7,7,0,0,1,2.52,5.51c-.18,2.21-1.66,4.13-4.4,5.72-6.26,3.64-7.53,6.88-8.41,9.26a2,2,0,0,1-3.27.79Z"/><g class="a763ea95-ac71-483d-ac1f-3a96a5b5df5a"><path class="fd2dc3ff-8d3d-401c-9a6f-8b22aa4c741b" d="M46.07,66.08a7.41,7.41,0,0,1,6,6h0c8.81-3.58,12.84-8.87,19.69-18.75a86.57,86.57,0,0,1,5.52-6.9l-5.52-5.52L67.56,44.2c-1.43,1.14-2.87,2.26-4.35,3.32-8.94,6.42-13.75,10.29-17.14,18.56"/></g><path class="a76c071c-bb1e-4318-99d3-a95b869137a9" d="M77.24,46.39c.63-.69,1.27-1.37,1.93-2l0,0c1.81-1.81,2.06-4.49.56-6h0c-1.5-1.5-4.18-1.25-6,.56l0,0c-.67.66-1.34,1.3-2,1.93Z"/><path class="a76c071c-bb1e-4318-99d3-a95b869137a9" d="M50,68.13a7.58,7.58,0,0,0-3.91-2,35.19,35.19,0,0,0-2.09,5,5.4,5.4,0,0,1-1.17,1.94L41,75c-.86.92-1.31,1.89-.57,2.63h0c.77.77,1.78.28,2.71-.64l1.43-1.44a5.34,5.34,0,0,1,2.13-1.31A35,35,0,0,0,52,72,7.65,7.65,0,0,0,50,68.13Z"/></svg>