<svg id="ea3add04-d1bd-4ab1-8743-73781faf1eeb" data-name="Layer 1" xmlns="http://www.w3.org/2000/svg" viewBox="0 0 64 64"><defs><style>.ba1f9332-17f8-43a5-9e85-26c8eb152e93</style></defs><path class="ba1f9332-17f8-43a5-9e85-26c8eb152e93" d="M20.11,28.11a2.49,2.49,0,0,0,2.5-2.5V17.76a8.92,8.92,0,0,1,8.91-8.91h.95a8.93,8.93,0,0,1,8.92,8.91v7.85a2.5,2.5,0,0,0,5,0V17.76A13.93,13.93,0,0,0,32.47,3.85h-.95A13.93,13.93,0,0,0,17.61,17.76v7.85A2.49,2.49,0,0,0,20.11,28.11Z"/><path class="ba1f9332-17f8-43a5-9e85-26c8eb152e93" d="M46.47,30.6H17.53a5.87,5.87,0,0,0-5.86,5.86V54.29a5.87,5.87,0,0,0,5.86,5.86H46.47a5.87,5.87,0,0,0,5.86-5.86V36.46A5.87,5.87,0,0,0,46.47,30.6Zm.86,23.69a.85.85,0,0,1-.86.86H17.53a.86.86,0,0,1-.86-.86V36.46a.87.87,0,0,1,.86-.86H46.47a.86.86,0,0,1,.86.86Z"/><path class="ba1f9332-17f8-43a5-9e85-26c8eb152e93" d="M32,39.85a2.49,2.49,0,0,0-2.5,2.5v5.5a2.5,2.5,0,0,0,5,0v-5.5A2.5,2.5,0,0,0,32,39.85Z"/></svg>