<?xml version="1.0" encoding="UTF-8"?>
<svg id="Layer_1" data-name="Layer 1" xmlns="http://www.w3.org/2000/svg" viewBox="0 0 64 64">
  <path d="M46.75,45.44c-5.79,6.98-15.55,9.1-23.73,5.16-7.12-3.43-11.38-10.66-11.15-18.32l.08,.12c.58,.85,1.52,1.3,2.48,1.3,.58,0,1.17-.17,1.69-.53,1.37-.94,1.71-2.8,.78-4.17l-4.12-6.02c-.94-1.37-2.8-1.72-4.17-.78l-6.02,4.12c-1.37,.94-1.71,2.8-.78,4.17,.58,.85,1.52,1.3,2.48,1.3,.56,0,1.13-.16,1.64-.49-.63,10.29,4.97,20.1,14.49,24.69,3.59,1.73,7.41,2.57,11.19,2.57,7.46,0,14.75-3.25,19.77-9.3,1.06-1.27,.88-3.17-.39-4.22-1.28-1.06-3.17-.88-4.22,.39Z"/>
  <path d="M62.2,33.5c-.92-1.35-2.75-1.7-4.11-.81,.63-10.29-4.97-20.1-14.49-24.69-10.67-5.15-23.4-2.38-30.96,6.73-1.06,1.27-.88,3.17,.39,4.22,1.27,1.06,3.17,.88,4.22-.39,5.79-6.98,15.55-9.1,23.73-5.16,7.12,3.43,11.38,10.66,11.15,18.32l-.08-.12c-.94-1.37-2.8-1.72-4.17-.78-1.37,.94-1.72,2.8-.78,4.17l4.12,6.01s0,0,0,0c.44,.64,1.07,1.05,1.77,1.22,.23,.06,.47,.08,.71,.08,.15,0,.29-.01,.44-.03,.44-.06,.87-.23,1.26-.49l6.02-4.12c1.37-.94,1.71-2.8,.78-4.17Z"/>
</svg>