<svg id="af725fc7-77b2-4eb3-8916-29c3ed7efe6f" data-name="Layer 1" xmlns="http://www.w3.org/2000/svg" viewBox="0 0 64 64"><defs><style>.baa09181-c4aa-4e36-92c9-6ef9d7bc897d</style></defs><path class="baa09181-c4aa-4e36-92c9-6ef9d7bc897d" d="M50.24,19.2a3,3,0,0,0-2.7,3V55a.89.89,0,0,1-.91.88H17.29a.89.89,0,0,1-.9-.88V22.21a3,3,0,0,0-2.71-3,2.86,2.86,0,0,0-3,2.85V55a6.62,6.62,0,0,0,6.62,6.6H46.63A6.62,6.62,0,0,0,53.25,55V22.05A2.85,2.85,0,0,0,50.24,19.2Z"/><path class="baa09181-c4aa-4e36-92c9-6ef9d7bc897d" d="M29.14,46.38V27.63a3,3,0,0,0-2.7-3,2.86,2.86,0,0,0-3,2.85V46.22a3,3,0,0,0,2.71,3A2.86,2.86,0,0,0,29.14,46.38Z"/><path class="baa09181-c4aa-4e36-92c9-6ef9d7bc897d" d="M39.62,46.38V27.63a3,3,0,0,0-2.7-3,2.85,2.85,0,0,0-3,2.85V46.22a3,3,0,0,0,2.71,3A2.86,2.86,0,0,0,39.62,46.38Z"/><path class="baa09181-c4aa-4e36-92c9-6ef9d7bc897d" d="M52.74,11H43.89a.69.69,0,0,1-.69-.69v-5a2.86,2.86,0,0,0-2.86-2.86H22.71A2.86,2.86,0,0,0,19.86,5.3v5a.69.69,0,0,1-.69.69H11.26a3,3,0,0,0-3,2.7,2.87,2.87,0,0,0,2.85,3H52.91a2.87,2.87,0,0,0,2.85-3A3,3,0,0,0,52.74,11ZM25.57,10.3V8.85a.69.69,0,0,1,.69-.69H36.8a.69.69,0,0,1,.69.69V10.3a.69.69,0,0,1-.69.69H26.26A.69.69,0,0,1,25.57,10.3Z"/></svg>
