<svg id="eb13c330-7c78-4a18-b12f-f5ecf8ed20da" data-name="Layer 1" xmlns="http://www.w3.org/2000/svg" viewBox="0 0 64 64"><defs><style>.afef95d1-4afa-45ea-bf4e-d1fc869eb84e</style></defs><path class="afef95d1-4afa-45ea-bf4e-d1fc869eb84e" d="M54.29,9.76A9.91,9.91,0,0,0,44.22,7.32l-37.54,12A9.42,9.42,0,0,0,1.07,24.1a9.16,9.16,0,0,0-.39,7.31A9.82,9.82,0,0,0,6,37.05l13,5.62a4.62,4.62,0,0,1,2.41,2.41l5.63,13A9.73,9.73,0,0,0,35.86,64a9,9,0,0,0,3.36-.65,9.47,9.47,0,0,0,5.5-5.93l12-37.55A9.89,9.89,0,0,0,54.29,9.76ZM51,18,39,55.54a3.49,3.49,0,0,1-2,2.2,3.56,3.56,0,0,1-4.47-2l-5.62-13c-.13-.29-.28-.58-.43-.86l9.76-9.76A3,3,0,1,0,32,27.83l-9.76,9.76a8.79,8.79,0,0,0-.87-.43l-13-5.62a3.79,3.79,0,0,1-2-2.18,3.19,3.19,0,0,1,.12-2.57A3.4,3.4,0,0,1,8.51,25L46.05,13a4,4,0,0,1,5,5Z"/></svg>