<svg id="f9c4ed0e-2f33-461b-9742-6b227c52ab5e" data-name="Layer 1" xmlns="http://www.w3.org/2000/svg" viewBox="0 0 64 64"><defs><style>.ecd6dae8-e114-46e1-8b93-30ab47868d6b</style></defs><path class="ecd6dae8-e114-46e1-8b93-30ab47868d6b" d="M38.71,56.13H9.61a1.69,1.69,0,0,1-1.35-.64,1.83,1.83,0,0,1-.36-1.55A24.14,24.14,0,0,1,31.36,35a23.66,23.66,0,0,1,10.41,2.38,2.93,2.93,0,0,0,2.54-5.29c-.56-.27-1.14-.52-1.72-.76a16.47,16.47,0,1,0-21.18-.46A30.06,30.06,0,0,0,2.18,52.69,7.7,7.7,0,0,0,3.7,59.17,7.55,7.55,0,0,0,9.61,62h29.1a2.94,2.94,0,0,0,0-5.87ZM32.26,7.87A10.64,10.64,0,1,1,21.65,18.5,10.63,10.63,0,0,1,32.26,7.87Z"/><path class="ecd6dae8-e114-46e1-8b93-30ab47868d6b" d="M59.07,47.47H53.36V41.75a2.93,2.93,0,1,0-5.85,0v5.72H41.79a2.94,2.94,0,0,0,0,5.87h5.72v5.73a2.93,2.93,0,1,0,5.85,0V53.34h5.71a2.94,2.94,0,0,0,0-5.87Z"/></svg>