<svg id="b8cca846-4156-462f-9147-e22642c81673" data-name="Layer 1" xmlns="http://www.w3.org/2000/svg" viewBox="0 0 64 64"><defs><style>.b1b04649-2c66-4fb1-916f-7a019d4c8c26</style></defs><path class="b1b04649-2c66-4fb1-916f-7a019d4c8c26" d="M26.57,56.13h-17a1.71,1.71,0,0,1-1.35-.64,1.83,1.83,0,0,1-.36-1.55A24.19,24.19,0,0,1,31.42,35a23.78,23.78,0,0,1,10.43,2.38,2.94,2.94,0,0,0,2.55-5.29c-.57-.27-1.15-.52-1.73-.76a16.5,16.5,0,1,0-21.23-.46A30.07,30.07,0,0,0,2.18,52.69,7.7,7.7,0,0,0,3.7,59.17,7.57,7.57,0,0,0,9.62,62h17a2.94,2.94,0,0,0,0-5.87ZM32.32,7.87A10.64,10.64,0,1,1,21.69,18.5,10.64,10.64,0,0,1,32.32,7.87Z"/><path class="b1b04649-2c66-4fb1-916f-7a019d4c8c26" d="M61.54,47.37a3.75,3.75,0,0,0,.24-.44h0l0-.09a3.17,3.17,0,0,0,.12-.41.9.9,0,0,0,0-.16c0-.12,0-.25,0-.37v-.15a2.42,2.42,0,0,0,0-.47v-.05a2.9,2.9,0,0,0-.14-.48l-.07-.15a2.68,2.68,0,0,0-.18-.33,1,1,0,0,0-.08-.14,2.25,2.25,0,0,0-.34-.41l-6.31-6.3a3,3,0,0,0-4.19,4.17l1.26,1.26h-12C35,42.84,31,47.14,31,52.42S35,62,39.86,62H41a3,3,0,1,0,0-5.91H39.86c-1.59,0-2.94-1.68-2.94-3.67s1.32-3.67,2.94-3.67h12L50.66,50a3,3,0,0,0,4.19,4.17l6.29-6.28,0-.07a2,2,0,0,0,.27-.31A1.48,1.48,0,0,0,61.54,47.37Z"/></svg>