<svg id="Layer_1" data-name="Layer 1" xmlns="http://www.w3.org/2000/svg" xmlns:xlink="http://www.w3.org/1999/xlink" viewBox="0 0 92 92"><defs><style>.cls-1,.cls-4,.cls-5,.cls-6,.cls-7,.cls-8,.cls-9{fill:#be9ded;}.cls-1{filter:url(#filter);}.cls-2,.cls-3{fill:#f7f7f7;}.cls-2{filter:url(#filter-2);}.cls-3{filter:url(#filter-3);}.cls-4{filter:url(#filter-4);}.cls-5{filter:url(#filter-5);}.cls-6{filter:url(#filter-6);}.cls-7{filter:url(#filter-7);}.cls-8{filter:url(#filter-8);}.cls-9{filter:url(#filter-9);}</style><filter id="filter" x="38.18" y="39.98" width="49" height="43" filterUnits="userSpaceOnUse"><feOffset dx="-2" dy="2" input="SourceAlpha"/><feGaussianBlur stdDeviation="5" result="blur"/><feFlood flood-color="#be9ded"/><feComposite operator="in" in2="blur"/><feComposite in="SourceGraphic"/></filter><filter id="filter-2" x="9.18" y="40.98" width="74" height="47" filterUnits="userSpaceOnUse"><feOffset dx="-2" dy="2" input="SourceAlpha"/><feGaussianBlur stdDeviation="5" result="blur-2"/><feFlood flood-color="#323232"/><feComposite operator="in" in2="blur-2"/><feComposite in="SourceGraphic"/></filter><filter id="filter-3" x="7.18" y="-0.02" width="75" height="76" filterUnits="userSpaceOnUse"><feOffset dx="-2" dy="2" input="SourceAlpha"/><feGaussianBlur stdDeviation="5" result="blur-3"/><feFlood flood-color="#323232"/><feComposite operator="in" in2="blur-3"/><feComposite in="SourceGraphic"/></filter><filter id="filter-4" x="-1.82" y="58.98" width="39" height="41" filterUnits="userSpaceOnUse"><feOffset dx="-2" dy="2" input="SourceAlpha"/><feGaussianBlur stdDeviation="5" result="blur-4"/><feFlood flood-color="#be9ded"/><feComposite operator="in" in2="blur-4"/><feComposite in="SourceGraphic"/></filter><filter id="filter-5" x="53.18" y="58.98" width="37" height="35" filterUnits="userSpaceOnUse"><feOffset dx="-2" dy="2" input="SourceAlpha"/><feGaussianBlur stdDeviation="5" result="blur-5"/><feFlood flood-color="#be9ded"/><feComposite operator="in" in2="blur-5"/><feComposite in="SourceGraphic"/></filter><filter id="filter-6" x="11.18" y="56.98" width="36" height="40" filterUnits="userSpaceOnUse"><feOffset dx="-2" dy="2" input="SourceAlpha"/><feGaussianBlur stdDeviation="5" result="blur-6"/><feFlood flood-color="#be9ded"/><feComposite operator="in" in2="blur-6"/><feComposite in="SourceGraphic"/></filter><filter id="filter-7" x="-2.82" y="52.98" width="38" height="34" filterUnits="userSpaceOnUse"><feOffset dx="-2" dy="2" input="SourceAlpha"/><feGaussianBlur stdDeviation="5" result="blur-7"/><feFlood flood-color="#be9ded"/><feComposite operator="in" in2="blur-7"/><feComposite in="SourceGraphic"/></filter><filter id="filter-8" x="26.18" y="16.98" width="62" height="50" filterUnits="userSpaceOnUse"><feOffset dx="-2" dy="2" input="SourceAlpha"/><feGaussianBlur stdDeviation="5" result="blur-8"/><feFlood flood-color="#be9ded"/><feComposite operator="in" in2="blur-8"/><feComposite in="SourceGraphic"/></filter><filter id="filter-9" x="20.18" y="16.98" width="62" height="55" filterUnits="userSpaceOnUse"><feOffset dx="-2" dy="2" input="SourceAlpha"/><feGaussianBlur stdDeviation="5" result="blur-9"/><feFlood flood-color="#be9ded"/><feComposite operator="in" in2="blur-9"/><feComposite in="SourceGraphic"/></filter></defs><path class="cls-1" d="M55.66,58.1s8.66,10.28,18.45,6.33l-5.06-6.62L65.4,53.38Z"/><path class="cls-2" d="M69.06,67.39a35.47,35.47,0,0,0-11.45-7.14l-.75-4.35a1.32,1.32,0,0,0-2.61.45l.52,3-.22-.05a24.59,24.59,0,0,0-9.89-.3l1-2.38a1.33,1.33,0,0,0-2.43-1.06l-1.82,4.19a33.09,33.09,0,0,0-14,8.83,1.33,1.33,0,0,0,.12,1.87,1.36,1.36,0,0,0,.88.33,1.3,1.3,0,0,0,1-.45,30.64,30.64,0,0,1,13.38-8.2,22.37,22.37,0,0,1,13.14.29l.24.08a32.47,32.47,0,0,1,11.15,6.83,1.32,1.32,0,1,0,1.77-2Z"/><path class="cls-3" d="M66.57,54.8,65,52.94l-7.24-8.79-2.15-2.6-5.33-6.46-1.07-1.3A7.64,7.64,0,0,1,48,30.35a7,7,0,0,1,0-.8,7.73,7.73,0,0,1,7.74-7.74,7.62,7.62,0,0,1,1.85.22,3.18,3.18,0,0,0-.16-.32A16,16,0,0,0,49.34,14h0a17.12,17.12,0,0,0-5.64-.95C33,13.08,24.35,22.9,24.35,35a23.7,23.7,0,0,0,4.71,14.36,16.43,16.43,0,0,0,3,3h0a30.81,30.81,0,0,0,6.38,3.86A14.83,14.83,0,0,0,41,57c4.6,1,11.27,1.1,17.21,1.07s10.8-.29,10.8-.29Z"/><path class="cls-4" d="M23.7,72.9h0c-9.64,1.22-7.77,10-7.77,10h0c9.63-1.21,7.77-10,7.77-10Z"/><path class="cls-5" d="M77,76.79h0a4.66,4.66,0,0,0-6-3.91h0a4.66,4.66,0,0,0,6,3.91Z"/><path class="cls-6" d="M32.09,70.38h0c-5.67,4-1.53,9-1.53,9h0c5.67-4,1.53-9,1.53-9Z"/><path class="cls-7" d="M21.87,68.29h0A4.52,4.52,0,0,0,15,67.14h0a4.52,4.52,0,0,0,6.88,1.15Z"/><path class="cls-8" d="M74.83,43.6a27.44,27.44,0,0,1-2.48,1.89c-.47.33-1,.64-1.46.93l-1.16.71a17.55,17.55,0,0,1-3.68,1.75,17.34,17.34,0,0,1-2.94.74,17.77,17.77,0,0,1-6.09,0c-4.23-.77-8.31-2-11-5.42a8.85,8.85,0,0,1-1.75-3.23A8,8,0,0,1,48.9,31.2a8.13,8.13,0,0,1,1.65-.36,8,8,0,0,1,1.77.05,7.13,7.13,0,0,1,2.56.94l.48.28,18.81,11.1Z"/><path class="cls-9" d="M68.33,51.85a31.37,31.37,0,0,1-3.19,1.06l-.11,0c-.56.15-1.13.29-1.71.41l-1.42.31a19,19,0,0,1-4.36.5,19.47,19.47,0,0,1-3.26-.28A19,19,0,0,1,48.1,51.7L46.82,51A28.34,28.34,0,0,1,44,49.08a17.16,17.16,0,0,1-3.61-3.61,12.86,12.86,0,0,1-1.67-3.16,9.75,9.75,0,0,1-.65-3.9,8.57,8.57,0,0,1,8.16-8.26,7.91,7.91,0,0,1,1.76.2h0a8.35,8.35,0,0,1,1.79.67,7.79,7.79,0,0,1,2.27,1.85l.4.46,3.37,3.94,1.38,1.62,2.27,2.66,8.25,9.66Z"/></svg>